<svg width="105" height="106" viewBox="0 0 105 106" fill="none" xmlns="http://www.w3.org/2000/svg">
<g id="1in5 1" clip-path="url(#clip0_773_1784)">
<g id="Layer_1">
<path id="Vector" d="M20.3074 64.6078C18.4078 65.7076 16.2082 66.4075 13.8087 66.4075C11.4091 66.4075 9.20952 65.7076 7.30988 64.6078C4.61039 65.8076 2.61077 68.4071 2.21084 71.5065L1.41099 80.8048C1.31101 81.7046 1.81092 82.6044 2.81073 82.8044C4.11048 83.1043 5.41024 83.3043 6.80998 83.5042L7.80979 103.8C7.80979 104.8 8.60964 105.5 9.60945 105.5H18.2078C19.2076 105.5 19.9075 104.7 20.0075 103.8L21.0073 83.5042C22.407 83.3043 23.7068 83.1043 25.0065 82.8044C25.9064 82.6044 26.5063 81.7046 26.3063 80.8048L25.5064 71.5065C25.1065 68.4071 23.0069 65.8076 20.3074 64.6078Z" stroke="#2362EB" stroke-width="2" stroke-miterlimit="10"/>
<path id="Vector_2" d="M13.8094 61.9083C18.3086 61.9083 21.9079 58.309 21.9079 53.8098C21.9079 49.3107 18.3086 45.7114 13.8094 45.7114C9.31026 45.7114 5.71094 49.3107 5.71094 53.8098C5.71094 58.309 9.31026 61.9083 13.8094 61.9083Z" stroke="#2362EB" stroke-width="2" stroke-miterlimit="10"/>
<path id="Vector_3" d="M59.1004 64.6078C57.2008 65.7076 55.0012 66.4075 52.6016 66.4075C50.2021 66.4075 48.0025 65.7076 46.1028 64.6078C43.4034 65.8076 41.4037 68.4071 41.0038 71.5065L40.204 80.8048C40.104 81.7046 40.6039 82.6044 41.6037 82.8044C42.9035 83.1043 44.2032 83.3043 45.6029 83.5042L46.6028 103.8C46.6028 104.8 47.4026 105.5 48.4024 105.5H57.0008C58.0006 105.5 58.7005 104.7 58.8005 103.8L59.8003 83.5042C61.2 83.3043 62.4998 83.1043 63.7995 82.8044C64.6993 82.6044 65.2992 81.7046 65.0993 80.8048L64.2994 71.5065C63.8995 68.4071 61.7999 65.8076 59.1004 64.6078Z" fill="#2362EB"/>
<path id="Vector_4" d="M52.6004 61.9083C57.0996 61.9083 60.6989 58.309 60.6989 53.8098C60.6989 49.3107 57.0996 45.7114 52.6004 45.7114C48.1013 45.7114 44.502 49.3107 44.502 53.8098C44.502 58.309 48.1013 61.9083 52.6004 61.9083Z" fill="#2362EB"/>
<path id="Vector_5" d="M97.8934 64.6078C95.9937 65.7076 93.7941 66.4075 91.3946 66.4075C88.995 66.4075 86.7955 65.7076 84.8958 64.6078C82.1963 65.8076 80.1967 68.4071 79.7968 71.5065L78.9969 80.8048C78.8969 81.7046 79.3969 82.6044 80.3967 82.8044C81.6964 83.1043 82.9962 83.3043 84.3959 83.5042L85.3957 103.8C85.3957 104.8 86.1956 105.5 87.1954 105.5H95.7938C96.7936 105.5 97.4934 104.7 97.5934 103.8L98.5932 83.5042C99.993 83.3043 101.293 83.1043 102.592 82.8044C103.492 82.6044 104.092 81.7046 103.892 80.8048L103.092 71.5065C102.692 68.4071 100.593 65.8076 97.8934 64.6078Z" stroke="#2362EB" stroke-width="2" stroke-miterlimit="10"/>
<path id="Vector_6" d="M91.3934 61.9083C95.8926 61.9083 99.4919 58.309 99.4919 53.8098C99.4919 49.3107 95.8926 45.7114 91.3934 45.7114C86.8943 45.7114 83.2949 49.3107 83.2949 53.8098C83.195 58.309 86.8943 61.9083 91.3934 61.9083Z" stroke="#2362EB" stroke-width="2" stroke-miterlimit="10"/>
<path id="Vector_7" d="M39.7039 19.3964C37.8043 20.4962 35.6047 21.196 33.2051 21.196C30.8056 21.196 28.606 20.4962 26.7064 19.3964C24.0069 20.5961 22.0073 23.1956 21.6073 26.2951L20.8075 35.5933C20.7075 36.4931 21.2074 37.393 22.2072 37.5929C23.507 37.8929 24.8067 38.0928 26.2065 38.2928L27.2063 58.589C27.2063 59.5888 28.0061 60.2887 29.0059 60.2887H37.6043C38.6041 60.2887 39.304 59.4888 39.404 58.589L40.4038 38.2928C41.8035 38.0928 43.1033 37.8929 44.403 37.5929C45.3029 37.393 45.9027 36.4931 45.7028 35.5933L44.9029 26.2951C44.503 23.1956 42.4034 20.5961 39.7039 19.3964Z" stroke="#2362EB" stroke-width="2" stroke-miterlimit="10"/>
<path id="Vector_8" d="M33.2039 16.6968C37.7031 16.6968 41.3024 13.0975 41.3024 8.59835C41.3024 4.0992 37.7031 0.499878 33.2039 0.499878C28.7048 0.499878 25.1055 4.0992 25.1055 8.59835C25.1055 13.0975 28.7048 16.6968 33.2039 16.6968Z" stroke="#2362EB" stroke-width="2" stroke-miterlimit="10"/>
<path id="Vector_9" d="M78.2469 19.3964C76.3472 20.4962 74.1477 21.196 71.7481 21.196C69.3486 21.196 67.149 20.4962 65.2493 19.3964C62.5498 20.5961 60.5502 23.1956 60.1503 26.2951L59.3504 35.5933C59.2505 36.4931 59.7504 37.393 60.7502 37.5929C62.0499 37.8929 63.3497 38.0928 64.7494 38.2928L65.7492 58.589C65.7492 59.5888 66.5491 60.2887 67.5489 60.2887H76.1473C77.1471 60.2887 77.847 59.4888 77.9469 58.589L78.9467 38.2928C80.3465 38.0928 81.6462 37.8929 82.946 37.5929C83.8458 37.393 84.4457 36.4931 84.2458 35.5933L83.4459 26.2951C83.046 23.1956 80.9464 20.5961 78.2469 19.3964Z" stroke="#2362EB" stroke-width="2" stroke-miterlimit="10"/>
<path id="Vector_10" d="M71.7469 16.6968C76.2461 16.6968 79.8454 13.0975 79.8454 8.59835C79.8454 4.0992 76.2461 0.499878 71.7469 0.499878C67.2478 0.499878 63.6485 4.0992 63.6485 8.59835C63.5485 13.0975 67.2478 16.6968 71.7469 16.6968Z" stroke="#2362EB" stroke-width="2" stroke-miterlimit="10"/>
</g>
</g>
<defs>
<clipPath id="clip0_773_1784">
<rect width="103.53" height="106" fill="white" transform="translate(0.900391)"/>
</clipPath>
</defs>
</svg>
