<svg width="122" height="106" viewBox="0 0 122 106" fill="none" xmlns="http://www.w3.org/2000/svg">
<g id="Frame 227">
<path id="Vector" d="M69.4778 61.7106L79.5947 71.9375M80.05 81.5869C79.4219 80.9907 78.9187 80.2731 78.5703 79.4765C78.2219 78.68 78.0354 77.8208 78.0218 76.9499C78.0083 76.0791 78.1679 75.2144 78.4914 74.4072C78.8148 73.5999 79.2954 72.8666 79.9046 72.2508C80.5139 71.6349 81.2393 71.1491 82.0378 70.8222C82.8364 70.4952 83.6918 70.3338 84.5533 70.3475C85.4147 70.3612 86.2647 70.5497 87.0527 70.9019C87.8407 71.2541 88.5506 71.7627 89.1404 72.3977L102.359 85.7598C102.987 86.356 103.49 87.0736 103.838 87.8702C104.187 88.6667 104.373 89.5259 104.387 90.3967C104.401 91.2676 104.241 92.1323 103.917 92.9395C103.594 93.7468 103.113 94.4801 102.504 95.0959C101.895 95.7118 101.169 96.1976 100.371 96.5245C99.5724 96.8515 98.717 97.0129 97.8555 96.9992C96.994 96.9855 96.1441 96.797 95.3561 96.4448C94.5681 96.0926 93.8582 95.5839 93.2684 94.949L80.05 81.5869ZM78.1684 39.7478C78.1684 31.593 74.9638 23.7722 69.2594 18.0058C63.5551 12.2395 55.8184 9 47.7512 9C39.6841 9 31.9473 12.2395 26.243 18.0058C20.5386 23.7722 17.334 31.593 17.334 39.7478C17.334 47.9027 20.5386 55.7235 26.243 61.4899C31.9473 67.2562 39.6841 70.4957 47.7512 70.4957C55.8184 70.4957 63.5551 67.2562 69.2594 61.4899C74.9638 55.7235 78.1684 47.9027 78.1684 39.7478Z" stroke="white" stroke-width="3.5" stroke-linecap="round" stroke-linejoin="round"/>
</g>
</svg>
